<svg width="70" height="76" viewBox="0 0 70 76" fill="none" xmlns="http://www.w3.org/2000/svg">
<g clip-path="url(#clip0_27_263)">
<g clip-path="url(#clip1_27_263)">
<g clip-path="url(#clip2_27_263)">
<path d="M50.5555 1.28857H16.8518C13.2723 1.28857 10.3704 4.19044 10.3704 7.77006V67.3997C10.3704 70.9793 13.2723 73.8812 16.8518 73.8812H50.5555C54.1351 73.8812 57.037 70.9793 57.037 67.3997V7.77006C57.037 4.19044 54.1351 1.28857 50.5555 1.28857Z" stroke="url(#paint0_linear_27_263)" stroke-width="1.94444" stroke-linecap="round" stroke-linejoin="round"/>
<path d="M33.7037 68.6959C35.1356 68.6959 36.2963 67.5352 36.2963 66.1033C36.2963 64.6714 35.1356 63.5107 33.7037 63.5107C32.2718 63.5107 31.1111 64.6714 31.1111 66.1033C31.1111 67.5352 32.2718 68.6959 33.7037 68.6959Z" fill="#2ECC71"/>
<path d="M31.9597 15.9888H2.59259C1.16074 15.9888 0 17.1495 0 18.5814V32.3999C0 33.8318 1.16074 34.9925 2.59259 34.9925H31.9597C33.3916 34.9925 34.5523 33.8318 34.5523 32.3999V18.5814C34.5523 17.1495 33.3916 15.9888 31.9597 15.9888Z" fill="url(#paint1_linear_27_263)"/>
<path d="M6.04602 22.2734H28.0731" stroke="#110E1B" stroke-width="1.94444" stroke-linecap="round"/>
<path d="M6.04602 28.231H19.8669" stroke="#110E1B" stroke-width="1.94444" stroke-linecap="round"/>
<path d="M31.1111 6.47363H37.5926" stroke="url(#paint2_linear_27_263)" stroke-width="1.55556" stroke-linecap="round" stroke-linejoin="round"/>
<path d="M59.6296 41.4736H42.7778C41.3459 41.4736 40.1852 42.6343 40.1852 44.0662V53.1403C40.1852 54.5722 41.3459 55.7329 42.7778 55.7329H59.6296C61.0615 55.7329 62.2222 54.5722 62.2222 53.1403V44.0662C62.2222 42.6343 61.0615 41.4736 59.6296 41.4736Z" fill="#110E1B" stroke="#2ECC71" stroke-width="1.94444" stroke-linecap="round"/>
</g>
</g>
</g>
<defs>
<linearGradient id="paint0_linear_27_263" x1="4.19388" y1="-17.4646" x2="31.9807" y2="81.6995" gradientUnits="userSpaceOnUse">
<stop stop-color="white"/>
<stop offset="1" stop-color="white" stop-opacity="0"/>
</linearGradient>
<linearGradient id="paint1_linear_27_263" x1="17.8719" y1="20.695" x2="-2.2742" y2="24.2375" gradientUnits="userSpaceOnUse">
<stop stop-color="#2ECC71"/>
<stop offset="1" stop-color="#2ECC71" stop-opacity="0"/>
</linearGradient>
<linearGradient id="paint2_linear_27_263" x1="31.1111" y1="6.47363" x2="37.5926" y2="6.47363" gradientUnits="userSpaceOnUse">
<stop stop-color="white"/>
<stop offset="1" stop-color="white" stop-opacity="0"/>
</linearGradient>
<clipPath id="clip0_27_263">
<rect width="70" height="75.17" fill="white"/>
</clipPath>
<clipPath id="clip1_27_263">
<rect width="70" height="75.17" fill="white"/>
</clipPath>
<clipPath id="clip2_27_263">
<rect width="70" height="75.1852" fill="white" transform="translate(0 -0.0078125)"/>
</clipPath>
</defs>
</svg>
