<svg width="26" height="26" viewBox="0 0 26 26" fill="none" xmlns="http://www.w3.org/2000/svg">
<g clip-path="url(#clip0_128_48)">
<path d="M5.41691 20.4612L1.07658 16.1209C0.562498 15.5924 0.241943 14.8463 0.241943 14.1176C0.241943 13.7802 0.432595 13.2525 0.575704 12.9489L4.58227 4.60205L5.41691 20.4612Z" fill="#01579B"/>
<path d="M20.2745 5.43669L15.9342 1.09636C15.5551 0.715777 14.7656 0.261719 14.0978 0.261719C13.5239 0.261719 12.9606 0.376494 12.5954 0.595479L4.58228 4.60205L20.2745 5.43669Z" fill="#40C4FF"/>
<path d="M10.5922 25.6361H21.1092V21.1289L13.2632 18.6248L6.08472 21.1289L10.5922 25.6361Z" fill="#40C4FF"/>
<path d="M4.58228 18.1239C4.58228 19.463 4.75012 19.7915 5.41692 20.461L6.08468 21.1287H21.1092L13.7638 12.7821L4.58228 4.60205V18.1239Z" fill="#29B6F6"/>
<path d="M17.9373 4.60205H4.58228L21.1092 21.129H25.6164V10.7788L20.2745 5.43669C19.5242 4.68345 18.8579 4.60205 17.9373 4.60205Z" fill="#01579B"/>
<path opacity="0.2" d="M5.58405 20.6281C4.91629 19.9577 4.74941 19.2971 4.74941 18.1239V4.76893L4.58253 4.60205V18.1239C4.58229 19.2971 4.58229 19.6225 5.58405 20.6281Z" fill="white"/>
<path opacity="0.2" d="M25.4496 10.6118V20.962H20.9424L21.1093 21.1289H25.6167V10.7787L25.4496 10.6118Z" fill="#263238"/>
<path opacity="0.2" d="M20.2745 5.43669C19.4471 4.60925 18.7683 4.60205 17.7704 4.60205H4.58228L4.74916 4.76893H17.7704C18.2693 4.76893 19.5261 4.68561 20.2745 5.43669Z" fill="white"/>
<path opacity="0.2" d="M25.4495 10.6119L20.2745 5.43669L15.9342 1.09636C15.5551 0.715777 14.7656 0.261719 14.0978 0.261719C13.5239 0.261719 12.9606 0.376494 12.5954 0.595479L4.58227 4.60205L0.575704 12.9489C0.432595 13.2524 0.241943 13.78 0.241943 14.1176C0.241943 14.8463 0.562498 15.5921 1.07658 16.1209L5.07643 20.0919C5.17223 20.2086 5.28437 20.3282 5.41691 20.4612L5.58379 20.6281L6.08467 21.1289L10.425 25.4693L10.5919 25.6362H20.9421H21.1089V21.1289H25.6161V21.1169V10.7788L25.4495 10.6119Z" fill="url(#paint0_radial_128_48)"/>
</g>
<defs>
<radialGradient id="paint0_radial_128_48" cx="0" cy="0" r="1" gradientUnits="userSpaceOnUse" gradientTransform="translate(12.9292 12.9489) scale(12.6873)">
<stop stop-color="white" stop-opacity="0.1"/>
<stop offset="1" stop-color="white" stop-opacity="0"/>
</radialGradient>
<clipPath id="clip0_128_48">
<rect width="25.6" height="25.6" fill="white"/>
</clipPath>
</defs>
</svg>
