<svg width="26" height="26" viewBox="0 0 26 26" fill="none" xmlns="http://www.w3.org/2000/svg">
<g opacity="0.740062" clip-path="url(#clip0_27_409)">
<g clip-path="url(#clip1_27_409)">
<g clip-path="url(#clip2_27_409)">
<mask id="mask0_27_409" style="mask-type:luminance" maskUnits="userSpaceOnUse" x="0" y="0" width="26" height="26">
<path d="M25.6 0H0V25.6H25.6V0Z" fill="white"/>
</mask>
<g mask="url(#mask0_27_409)">
<path d="M23.9762 0H1.62619C0.728572 0 0 0.728572 0 1.62619V23.9738C0 24.8714 0.728572 25.6 1.62619 25.6H23.9738C24.8714 25.6 25.6 24.8714 25.6 23.9762V1.62619C25.6 0.728572 24.8714 0 23.9762 0ZM14.019 19.6166C14.019 22.0524 12.5905 23.1619 10.5048 23.1619C8.61904 23.1619 7.25952 21.8976 6.70476 20.7238L8.62144 19.5643C8.99048 20.219 9.5524 20.7238 10.3619 20.7238C11.1357 20.7238 11.581 20.4214 11.581 19.2452V11.581H14.019V19.6166ZM19.3071 23.1619C17.1476 23.1619 15.9214 22.0738 15.2381 20.7238L17.0666 19.5047C17.5643 20.319 18.1071 21.0976 19.2547 21.0976C20.219 21.0976 20.7238 20.6166 20.7238 19.95C20.7238 19.1548 20.2 18.8714 19.1405 18.4071L18.5595 18.1571C16.881 17.4429 15.7643 16.5476 15.7643 14.6524C15.7643 12.9095 17.0952 11.581 19.1714 11.581C20.65 11.581 21.7119 12.0952 22.4786 13.4429L20.669 14.6071C20.269 13.8905 19.8405 13.6095 19.1714 13.6095C18.4905 13.6095 18.0595 14.0429 18.0595 14.6071C18.0595 15.3047 18.4905 15.5857 19.4881 16.019L20.069 16.269C22.0476 17.1143 23.1619 17.9786 23.1619 19.9214C23.1619 22.0143 21.5166 23.1619 19.3071 23.1619Z" fill="#FFD600"/>
</g>
</g>
</g>
</g>
<defs>
<clipPath id="clip0_27_409">
<rect width="25.6" height="25.6" fill="white"/>
</clipPath>
<clipPath id="clip1_27_409">
<rect width="25.6" height="25.6" fill="white"/>
</clipPath>
<clipPath id="clip2_27_409">
<rect width="25.6" height="25.6" fill="white"/>
</clipPath>
</defs>
</svg>
