<svg width="46" height="26" viewBox="0 0 46 26" fill="none" xmlns="http://www.w3.org/2000/svg">
<g opacity="0.740062" clip-path="url(#clip0_27_422)">
<g clip-path="url(#clip1_27_422)">
<g clip-path="url(#clip2_27_422)">
<mask id="mask0_27_422" style="mask-type:luminance" maskUnits="userSpaceOnUse" x="0" y="0" width="46" height="26">
<path d="M45.6 0H0V25.6H45.6V0Z" fill="white"/>
</mask>
<g mask="url(#mask0_27_422)">
<path d="M10.7597 6.67684H19.3602V7.31297H11.5481V12.1006H18.8944V12.7368H11.5481V17.9932H19.4498V18.6293H10.7597V6.67684ZM20.1307 6.67684H21.0446L25.094 11.9333L29.233 6.67684L34.8627 0L25.6136 12.4857L30.3798 18.6293H29.4301L25.094 13.0381L20.7399 18.6293H19.8082L24.6102 12.4857L20.1307 6.67684ZM30.7202 7.31297V6.67684H40.5213V7.31297H36.0059V18.6293H35.2176V7.31297H30.7202ZM0 6.67684H0.98548L14.5747 25.6L8.95896 18.6293L0.824224 7.58081L0.788386 18.6293H0V6.67684ZM40.4418 17.8012C40.2807 17.8012 40.1599 17.685 40.1599 17.535C40.1599 17.3849 40.2807 17.2688 40.4418 17.2688C40.6048 17.2688 40.7237 17.3849 40.7237 17.535C40.7237 17.685 40.6048 17.8012 40.4418 17.8012ZM41.2165 17.1008H41.6384C41.6442 17.3134 41.811 17.4564 42.0564 17.4564C42.3306 17.4564 42.4859 17.3027 42.4859 17.015V15.1926H42.9154V17.0168C42.9154 17.535 42.5933 17.8334 42.0602 17.8334C41.5598 17.8334 41.2165 17.5439 41.2165 17.1008ZM43.4773 17.0776H43.903C43.9394 17.3224 44.1964 17.4778 44.5665 17.4778C44.9116 17.4778 45.1647 17.3117 45.1647 17.083C45.1647 16.8864 45.0037 16.7685 44.6374 16.6881L44.2807 16.6077C43.7802 16.4987 43.5521 16.2735 43.5521 15.8948C43.5521 15.4356 43.9547 15.1301 44.5588 15.1301C45.1206 15.1301 45.531 15.4356 45.5559 15.8698H45.1378C45.0976 15.6321 44.8752 15.4838 44.553 15.4838C44.2136 15.4838 43.9874 15.6357 43.9874 15.868C43.9874 16.052 44.1331 16.1574 44.4936 16.236L44.7985 16.3057C45.3661 16.429 45.6 16.6434 45.6 17.0311C45.6 17.5242 45.1897 17.8334 44.5338 17.8334C43.9202 17.8334 43.508 17.5386 43.4773 17.0776Z" fill="#ADADAD"/>
</g>
</g>
</g>
</g>
<defs>
<clipPath id="clip0_27_422">
<rect width="45.6" height="25.6" fill="white"/>
</clipPath>
<clipPath id="clip1_27_422">
<rect width="45.6" height="25.6" fill="white"/>
</clipPath>
<clipPath id="clip2_27_422">
<rect width="45.6" height="25.6" fill="white"/>
</clipPath>
</defs>
</svg>
