<svg width="26" height="27" viewBox="0 0 26 27" fill="none" xmlns="http://www.w3.org/2000/svg">
<g opacity="0.740062" clip-path="url(#clip0_27_417)">
<g clip-path="url(#clip1_27_417)">
<path d="M14.9432 12.8216C14.9432 11.6704 13.9838 10.7371 12.8001 10.7371C11.6166 10.7371 10.657 11.6704 10.657 12.8216C10.657 13.973 11.6166 14.9063 12.8001 14.9063C13.9838 14.9063 14.9432 13.973 14.9432 12.8216Z" fill="#00D8FF"/>
<path fill-rule="evenodd" clip-rule="evenodd" d="M19.7604 8.95154C20.2129 7.16273 20.7818 3.84549 18.7764 2.72084C16.7803 1.6011 14.1828 3.74674 12.8112 5.03465C11.4436 3.75957 8.77309 1.62311 6.76935 2.75132C4.77406 3.87483 5.38936 7.13706 5.85197 8.93714C3.9907 9.4513 0.800049 10.5589 0.800049 12.8217C0.800049 15.0781 3.98738 16.2831 5.83763 16.7968C5.37331 18.6068 4.78882 21.8224 6.78666 22.9435C8.79789 24.0715 11.46 21.9859 12.8444 20.6839C14.2248 21.9794 16.7973 24.0787 18.7938 22.9545C20.7965 21.8268 20.2749 18.554 19.8123 16.7435C21.6059 16.2287 24.8 15.0499 24.8 12.8217C24.8 10.5807 21.5923 9.4641 19.7604 8.95154ZM19.533 15.784C19.2292 14.8487 18.8193 13.8541 18.3177 12.8267C18.7964 11.8235 19.1905 10.8417 19.4858 9.91242C20.8288 10.2911 23.7748 11.1567 23.7748 12.8217C23.7748 14.5023 20.9477 15.3761 19.533 15.784ZM18.2801 22.0914C16.7904 22.9301 14.5777 20.9226 13.5583 19.9685C14.2346 19.2491 14.9104 18.4126 15.57 17.4838C16.7304 17.3837 17.8265 17.22 18.8205 16.9965C19.1461 18.2771 19.7762 21.249 18.2801 22.0914ZM7.29894 22.0795C5.80919 21.2439 6.49011 18.3744 6.8317 17.0411C7.81472 17.2527 8.90293 17.4048 10.066 17.4966C10.7299 18.4054 11.4253 19.2407 12.1261 19.9724C11.2603 20.7871 8.79565 22.9188 7.29894 22.0795ZM1.82524 12.8217C1.82524 11.1348 4.7537 10.2755 6.12728 9.8977C6.42766 10.8479 6.82161 11.8414 7.29703 12.846C6.81545 13.8656 6.41586 14.8748 6.11273 15.8362C4.803 15.4715 1.82524 14.5096 1.82524 12.8217ZM7.28301 3.6144C8.77885 2.77221 11.0998 4.8233 12.0928 5.74649C11.3956 6.47474 10.7065 7.30383 10.0483 8.20747C8.91957 8.30923 7.83905 8.47259 6.84572 8.69155C6.47305 7.23972 5.78878 4.45569 7.28301 3.6144ZM16.3035 9.29138C17.0692 9.38538 17.8029 9.51042 18.4918 9.66338C18.285 10.3082 18.0272 10.9824 17.7236 11.6735C17.2836 10.8614 16.8112 10.0655 16.3035 9.29138ZM12.8115 6.45914C13.2844 6.95743 13.758 7.51387 14.2239 8.11755C13.2788 8.07403 12.3323 8.07387 11.3872 8.11691C11.8536 7.51883 12.3312 6.96322 12.8115 6.45914ZM7.88525 11.6728C7.58668 10.9841 7.33123 10.3069 7.12262 9.65282C7.80739 9.50386 8.53765 9.38203 9.29845 9.28955C8.78933 10.0619 8.31773 10.8575 7.88525 11.6728ZM9.32029 16.4251C8.53437 16.3398 7.79306 16.2241 7.1085 16.0791C7.3204 15.4137 7.58147 14.7219 7.88642 14.0183C8.32485 14.8421 8.80365 15.6454 9.32029 16.4251ZM12.8399 19.2547C12.354 18.7447 11.8692 18.1806 11.3959 17.5739C12.3463 17.6101 13.2985 17.6102 14.2488 17.569C13.7815 18.1867 13.3096 18.7517 12.8399 19.2547ZM17.7334 13.9824C18.0542 14.6937 18.3246 15.3817 18.5394 16.0359C17.8435 16.1905 17.0922 16.3149 16.3006 16.4072C16.812 15.6185 17.292 14.8102 17.7334 13.9824ZM14.9979 16.5281C13.5441 16.6291 12.0813 16.628 10.6271 16.5363C9.80077 15.3623 9.06517 14.1275 8.43021 12.8457C9.06213 11.5665 9.79237 10.3342 10.6148 9.16194C12.07 9.05499 13.5343 9.05467 14.9896 9.16259C15.8049 10.3347 16.534 11.5639 17.1806 12.8315C16.5417 14.11 15.8076 15.3449 14.9979 16.5281ZM18.2643 3.58475C19.7605 4.42419 19.0945 7.40549 18.7676 8.70187C17.772 8.47843 16.6907 8.3121 15.5587 8.20875C14.8992 7.29536 14.2159 6.46482 13.53 5.74597C14.5356 4.8029 16.7825 2.75353 18.2643 3.58475Z" fill="#00D8FF"/>
</g>
</g>
<defs>
<clipPath id="clip0_27_417">
<rect width="25.6" height="26.4" fill="white"/>
</clipPath>
<clipPath id="clip1_27_417">
<rect width="25.6" height="26.4" fill="white"/>
</clipPath>
</defs>
</svg>
