<svg width="26" height="27" viewBox="0 0 26 27" fill="none" xmlns="http://www.w3.org/2000/svg">
<g opacity="0.740062" clip-path="url(#clip0_27_430)">
<g clip-path="url(#clip1_27_430)">
<mask id="mask0_27_430" style="mask-type:luminance" maskUnits="userSpaceOnUse" x="0" y="0" width="26" height="26">
<path d="M25.6 0H0V25.6821H25.6V0Z" fill="white"/>
</mask>
<g mask="url(#mask0_27_430)">
<path d="M13.0667 2.3999C15.1763 2.3999 17.2387 3.02749 18.9927 4.20332C20.7469 5.37915 22.1141 7.05039 22.9214 9.00574C23.7287 10.961 23.9399 13.1126 23.5284 15.1884C23.1168 17.2641 22.1009 19.1709 20.6091 20.6674C19.1174 22.164 17.2168 23.1831 15.1476 23.596C13.0785 24.0089 10.9338 23.7969 8.98474 22.987C7.03566 22.1771 5.36975 20.8056 4.19768 19.0458C3.02562 17.2861 2.40002 15.2172 2.40002 13.1008C2.40002 10.2627 3.52383 7.54091 5.52422 5.53411C7.52461 3.52731 10.2377 2.3999 13.0667 2.3999ZM10.9334 16.6641C11.0938 17.1871 11.0938 17.7463 10.9334 18.2693C10.9334 18.3228 10.9334 18.3763 10.8694 18.4512C10.8054 18.5261 10.8694 18.5261 10.7947 18.5796C10.6712 18.8438 10.5055 19.086 10.304 19.2965C9.68538 19.9814 8.80002 20.2382 8.44802 20.0242C8.09602 19.8102 8.26666 18.8257 8.97066 18.066C9.52194 17.5204 10.1555 17.0653 10.848 16.7177L10.9334 16.6641ZM19.7547 7.03337C19.2747 5.12862 16.128 4.50797 13.1627 5.56736C11.3035 6.17764 9.5821 7.1484 8.09602 8.42446C6.46402 9.96542 6.19736 11.303 6.30402 11.8594C6.66669 13.8284 9.37602 15.1232 10.4854 16.0756C10.1654 16.2361 7.77602 17.4453 7.20002 18.6866C6.95646 19.0743 6.87582 19.543 6.97577 19.9901C7.07571 20.4373 7.3481 20.8266 7.73336 21.0729C8.41746 21.2385 9.13602 21.1851 9.78826 20.9202C10.4406 20.6554 10.9939 20.1924 11.3707 19.5961C11.6822 19.1149 11.8772 18.5671 11.9403 17.9967C12.0032 17.4263 11.9323 16.849 11.7334 16.311C12.268 16.1856 12.8206 16.1566 13.3654 16.2254C15.2427 16.4501 15.6054 17.6165 15.4987 18.1088C15.4669 18.2836 15.3981 18.4495 15.2969 18.5953C15.1957 18.7412 15.0644 18.8636 14.912 18.9541C14.784 19.029 14.7414 19.0611 14.752 19.1253C14.7627 19.1896 14.8267 19.2109 14.9334 19.1896C15.2243 19.1101 15.4835 18.9417 15.6747 18.7078C15.8658 18.4738 15.9795 18.1859 16 17.8841C16 16.7284 14.9334 15.4442 13.0027 15.4764C12.4389 15.4631 11.8768 15.5426 11.3387 15.7117L11.2534 15.6154C10.048 14.3313 7.82936 13.4753 7.92536 11.6882C7.92536 11.0569 8.17066 9.40894 12.192 7.4079C15.4774 5.75997 18.112 6.20941 18.592 7.22599C19.2427 8.64918 17.184 11.3137 13.7707 11.6989C13.397 11.7699 13.0123 11.7578 12.6437 11.6635C12.2751 11.5692 11.9316 11.395 11.6374 11.1532C11.456 10.9713 11.4347 10.9392 11.3707 10.9713C11.3067 11.0034 11.3707 11.2174 11.3707 11.3244C11.6419 11.7931 12.0803 12.1411 12.5974 12.2982C13.9427 12.5895 15.3451 12.451 16.608 11.9022C18.6134 11.089 20.2347 8.82038 19.7547 6.97987V7.03337Z" fill="#EC407A"/>
</g>
</g>
</g>
<defs>
<clipPath id="clip0_27_430">
<rect width="25.6" height="26.4" fill="white"/>
</clipPath>
<clipPath id="clip1_27_430">
<rect width="25.6" height="26.4" fill="white"/>
</clipPath>
</defs>
</svg>
