<svg width="26" height="26" viewBox="0 0 26 26" fill="none" xmlns="http://www.w3.org/2000/svg">
<g opacity="0.740062" clip-path="url(#clip0_27_438)">
<g clip-path="url(#clip1_27_438)">
<g clip-path="url(#clip2_27_438)">
<path d="M6.4 9.86669C7.25334 6.48894 9.38664 4.80005 12.8 4.80005C17.92 4.80005 18.56 8.60005 21.12 9.23341C22.8266 9.65557 24.32 9.02229 25.6 7.33338C24.7466 10.7112 22.6134 12.4 19.2 12.4C14.08 12.4 13.44 8.60005 10.88 7.96671C9.17336 7.5445 7.68 8.17781 6.4 9.86669ZM0 17.4667C0.853336 14.0889 2.98666 12.4 6.4 12.4C11.52 12.4 12.16 16.2 14.72 16.8334C16.4266 17.2556 17.92 16.6223 19.2 14.9334C18.3466 18.3112 16.2134 20 12.8 20C7.68 20 7.04 16.2 4.48 15.5667C2.77334 15.1445 1.28 15.7778 0 17.4667Z" fill="#38BDF8"/>
</g>
</g>
</g>
<defs>
<clipPath id="clip0_27_438">
<rect width="25.6" height="25.6" fill="white"/>
</clipPath>
<clipPath id="clip1_27_438">
<rect width="25.6" height="25.6" fill="white"/>
</clipPath>
<clipPath id="clip2_27_438">
<rect width="25.6" height="25.6" fill="white"/>
</clipPath>
</defs>
</svg>
