<svg width="26" height="26" viewBox="0 0 26 26" fill="none" xmlns="http://www.w3.org/2000/svg">
<g clip-path="url(#clip0_130_73)">
<path d="M21.76 0H3.84C1.71923 0 0 1.71923 0 3.84V21.76C0 23.8808 1.71923 25.6 3.84 25.6H21.76C23.8808 25.6 25.6 23.8808 25.6 21.76V3.84C25.6 1.71923 23.8808 0 21.76 0Z" fill="#3178C6"/>
<path d="M11.6499 14.2001H14.8499V12.1501H5.8999V14.2001H9.0999V23.3501H11.6499V14.2001ZM15.8499 22.8501C16.2549 23.0601 16.7499 23.2151 17.2999 23.3201C17.8499 23.4251 18.4499 23.4751 19.0499 23.4751C19.6499 23.4751 20.1999 23.4201 20.7499 23.3051C21.2999 23.1901 21.7499 23.0001 22.1499 22.7551C22.5549 22.4901 22.8999 22.1551 23.0999 21.7051C23.2999 21.2551 23.4549 20.7551 23.4549 20.1051C23.4549 19.6501 23.3849 19.2551 23.2499 18.9051C23.1149 18.5551 22.9199 18.2551 22.6499 18.0051C22.3949 17.7401 22.0999 17.5051 21.7499 17.3051C21.3999 17.1051 20.9999 16.8951 20.5499 16.7051C20.2199 16.5701 19.9499 16.4401 19.6499 16.3101C19.3899 16.1801 19.1649 16.0501 18.9999 15.9201C18.8149 15.7851 18.6749 15.6451 18.5749 15.5001C18.4749 15.3501 18.4249 15.1851 18.4249 15.0001C18.4249 14.8301 18.4694 14.6751 18.5599 14.5351C18.6504 14.3951 18.7749 14.2801 18.9349 14.1801C19.0949 14.0801 19.2949 14.0051 19.5349 13.9501C19.7699 13.8951 20.0299 13.8701 20.3349 13.8701C20.5449 13.8701 20.7649 13.8856 20.9849 13.9171C21.2149 13.9486 21.4499 13.9971 21.6849 14.0621C21.9199 14.1271 22.1499 14.2071 22.3849 14.3071C22.6049 14.4071 22.8099 14.5221 22.9849 14.6521V12.3021C22.6049 12.1571 22.1849 12.0471 21.7349 11.9771C21.2849 11.9071 20.7849 11.8721 20.1849 11.8721C19.5849 11.8721 19.0349 11.9371 18.4849 12.0621C17.9349 12.1871 17.4849 12.3871 17.0849 12.6621C16.6799 12.9321 16.3849 13.2621 16.1349 13.7121C15.8999 14.1321 15.7849 14.6121 15.7849 15.2121C15.7849 15.9621 15.9999 16.6121 16.4349 17.1121C16.8649 17.6621 17.5349 18.0621 18.3849 18.4621C18.7299 18.6021 19.0349 18.7421 19.3349 18.8771C19.6349 19.0121 19.8849 19.1521 20.0849 19.2971C20.2999 19.4421 20.4699 19.6021 20.5849 19.7721C20.7099 19.9421 20.7749 20.1421 20.7749 20.3721C20.7749 20.5321 20.7359 20.6821 20.6599 20.8221C20.5839 20.9621 20.4649 21.0821 20.3049 21.1821C20.1449 21.2821 19.9499 21.3621 19.7049 21.4221C19.4699 21.4771 19.2049 21.5071 18.8549 21.5071C18.3049 21.5071 17.7549 21.4121 17.2549 21.2221C16.7049 21.0321 16.2049 20.7471 15.8499 20.4501V22.8501Z" fill="white"/>
</g>
<defs>
<clipPath id="clip0_130_73">
<rect width="25.6" height="25.6" fill="white"/>
</clipPath>
</defs>
</svg>
